<?xml version="1.0" standalone="no"?>
<!DOCTYPE svg PUBLIC "-//W3C//DTD SVG 20010904//EN"
 "http://www.w3.org/TR/2001/REC-SVG-20010904/DTD/svg10.dtd">
<svg version="1.0" xmlns="http://www.w3.org/2000/svg"
 width="2000.000000pt" height="967.000000pt" viewBox="0 0 2000.000000 967.000000"
 preserveAspectRatio="xMidYMid meet">

<g transform="translate(0.000000,967.000000) scale(0.100000,-0.100000)"
fill="#000000" stroke="none">
<path d="M9860 9473 c-19 -1 -87 -8 -150 -14 -236 -22 -570 -77 -915 -151
-337 -72 -1762 -454 -1884 -505 -19 -8 -60 -32 -92 -53 -170 -116 -284 -334
-319 -610 -6 -47 -18 -136 -28 -199 l-18 -115 -404 -76 c-328 -62 -415 -82
-460 -104 -146 -75 -271 -195 -340 -327 l-41 -79 -2082 -2 -2081 -3 -447
-2440 c-246 -1342 -445 -2443 -442 -2447 2 -5 1146 -8 2542 -8 l2539 0 41 -70
c81 -135 229 -265 364 -319 29 -11 225 -52 437 -92 212 -39 388 -74 391 -77 3
-4 16 -79 28 -167 35 -248 50 -321 81 -408 63 -171 182 -313 322 -381 99 -49
228 -86 1022 -297 858 -228 1083 -279 1511 -343 312 -46 496 -59 755 -53 642
16 1204 123 2445 462 611 167 714 198 795 241 120 63 205 152 273 289 54 107
76 196 111 435 18 121 35 222 38 225 3 3 182 39 399 79 229 43 415 83 443 95
135 59 285 195 347 316 l34 65 1938 0 c1065 0 1937 3 1937 6 0 6 876 4809 886
4857 l6 27 -2386 0 -2385 0 -41 78 c-74 143 -186 252 -335 327 -88 44 -99 46
-480 116 -214 40 -391 72 -392 73 -1 1 -16 98 -33 216 -45 315 -83 432 -183
567 -88 118 -197 187 -397 248 -170 52 -1497 401 -1698 446 -355 80 -756 144
-1045 168 -116 10 -521 13 -607 4z m735 -182 c478 -56 771 -119 1675 -357 668
-176 939 -253 991 -280 l28 -14 -25 -68 c-14 -37 -27 -69 -29 -71 -2 -2 -100
24 -217 57 -117 34 -265 75 -328 91 -63 17 -338 89 -611 160 -535 140 -664
171 -949 225 -417 78 -685 108 -990 108 -326 0 -617 -34 -1095 -129 -384 -76
-1891 -472 -2008 -528 -55 -26 -121 -105 -151 -181 -28 -70 -35 -106 -95 -514
l-37 -255 -220 -41 c-695 -130 -782 -148 -817 -166 -52 -26 -124 -93 -158
-147 -16 -24 -45 -94 -65 -155 -20 -61 -41 -117 -47 -123 -7 -10 -437 -13
-2065 -15 l-2056 -3 -382 -2103 c-210 -1157 -385 -2107 -390 -2111 -117 -100
-194 -160 -194 -149 0 7 185 1033 412 2281 l412 2267 2071 0 2072 0 12 43 c28
95 84 190 156 261 120 121 130 125 617 217 233 44 437 83 455 86 36 6 34 0 73
278 37 273 58 363 102 455 47 98 134 192 210 229 66 31 291 95 1057 297 804
212 1056 268 1474 329 150 21 226 30 447 49 108 10 504 -4 665 -23z m-65 -712
c309 -20 699 -68 1150 -140 655 -104 1052 -212 1173 -318 103 -91 169 -405
152 -728 l-7 -131 29 -6 c15 -3 125 -21 243 -41 577 -94 838 -135 864 -135 41
0 105 -33 146 -75 l34 -35 -1082 0 -1082 0 -88 44 c-106 53 -380 162 -517 206
-707 224 -1498 272 -2242 134 -353 -65 -719 -181 -1022 -325 l-124 -59 -1035
0 -1036 0 33 33 c37 39 107 77 141 77 36 0 1054 172 1063 180 4 3 11 136 17
296 13 392 30 458 133 510 145 74 451 167 844 258 655 151 1226 243 1673 270
78 5 358 -3 540 -15z m3600 -983 c304 -57 458 -90 487 -104 42 -22 42 -22 29
-54 -7 -18 -21 -54 -30 -80 l-18 -48 -38 20 c-23 12 -222 53 -534 112 l-496
92 72 73 c40 40 75 73 78 73 3 0 205 -38 450 -84z m5499 -533 c0 -5 -42 -43
-93 -86 l-93 -77 -2307 2 -2306 3 57 83 57 82 2343 0 c1289 0 2343 -3 2342 -7z
m-10356 -420 c-122 -2 -324 -2 -450 0 -125 1 -25 2 222 2 248 0 350 -1 228 -2z
m1730 -10 c-24 -2 -62 -2 -85 0 -24 2 -5 4 42 4 47 0 66 -2 43 -4z m1175 0
c-21 -2 -55 -2 -75 0 -21 2 -4 4 37 4 41 0 58 -2 38 -4z m-560 -10 c-21 -2
-55 -2 -75 0 -21 2 -4 4 37 4 41 0 58 -2 38 -4z m-2711 -210 c-20 -2 -52 -2
-70 0 -17 2 0 4 38 4 39 0 53 -2 32 -4z m-4987 -11 c0 -5 -25 -26 -55 -48 -43
-31 -56 -46 -61 -74 -4 -19 -19 -97 -34 -172 -15 -76 -25 -138 -22 -138 3 0
29 18 58 40 l53 40 179 0 c98 0 181 -3 185 -6 3 -4 -21 -26 -53 -50 -33 -24
-62 -54 -65 -66 -3 -13 -30 -149 -60 -303 -30 -154 -132 -675 -227 -1157
l-172 -878 -186 0 -185 0 -29 -137 c-15 -76 -32 -159 -38 -185 l-10 -48 -996
0 -996 0 -49 -47 c-44 -43 -49 -45 -45 -23 2 14 148 753 323 1643 l319 1617
1083 0 c596 0 1083 -4 1083 -8z m1805 -28 c-22 -19 -51 -42 -65 -50 -24 -15
-30 -41 -114 -472 -49 -251 -184 -943 -301 -1537 l-212 -1080 -450 -5 -451 -5
-51 -43 c-28 -24 -51 -40 -51 -35 -1 4 144 740 322 1635 l323 1628 545 0 545
-1 -40 -35z m2955 29 c0 -5 -15 -18 -33 -31 -79 -56 -70 -27 -152 -453 -42
-217 -80 -418 -86 -446 l-10 -53 -271 0 -270 0 -56 -47 c-50 -43 -55 -45 -49
-23 3 14 20 97 37 185 l30 160 53 47 52 47 -459 -2 -460 -2 -22 -110 c-73
-354 -374 -1898 -371 -1902 2 -2 26 15 53 37 l48 40 191 2 190 3 39 190 39
190 49 43 49 42 -183 0 -183 0 -54 -47 c-48 -42 -54 -45 -48 -23 7 31 137 678
137 685 0 3 329 5 731 5 l731 0 -58 -46 -59 -45 -160 -812 -160 -812 -276 -5
-276 -5 -42 -38 c-22 -20 -45 -37 -49 -37 -5 0 -2 28 5 63 8 34 23 112 34 172
l21 110 56 52 57 53 -96 0 -97 0 -31 -167 c-18 -93 -34 -176 -37 -185 -5 -17
-44 -18 -641 -18 l-635 0 -55 -47 c-40 -34 -54 -42 -50 -28 3 11 20 94 38 185
l32 165 51 47 51 47 -174 1 -173 0 -50 -41 c-27 -23 -51 -39 -55 -36 -3 3 106
575 243 1271 l248 1266 182 0 182 0 6 28 c3 15 17 90 32 167 14 77 28 146 30
153 3 9 230 12 1094 12 599 0 1090 -3 1090 -7z m1470 -1 c0 -4 -26 -27 -58
-51 l-57 -44 -59 -301 c-32 -165 -83 -422 -112 -571 -29 -148 -137 -697 -239
-1220 -102 -522 -188 -958 -191 -967 -5 -17 -35 -18 -450 -18 l-445 0 -50 -47
c-27 -25 -52 -43 -55 -40 -5 5 618 3215 631 3255 3 9 121 12 545 12 297 0 540
-3 540 -8z m1460 1 c-1 -5 -26 -28 -56 -52 -30 -24 -57 -53 -59 -65 -13 -54
-133 -681 -131 -684 2 -1 23 16 48 38 l46 40 373 2 373 3 70 363 70 362 543 0
c299 0 543 -3 542 -7 0 -5 -23 -26 -52 -49 l-52 -41 -219 -1109 c-120 -610
-257 -1305 -305 -1544 l-86 -435 -449 -3 -449 -2 -55 -45 c-30 -25 -57 -44
-59 -42 -2 2 28 163 66 358 38 195 101 521 141 726 l72 372 61 48 62 48 -94 3
c-51 1 -95 1 -97 -1 -3 -2 -35 -164 -74 -360 -38 -197 -72 -361 -75 -367 -4
-6 -165 -10 -452 -10 l-446 0 -55 -45 c-30 -25 -56 -44 -58 -43 -1 2 29 163
67 358 38 195 69 358 69 362 0 4 24 26 54 50 30 24 55 46 55 51 1 4 -42 7 -94
7 -90 0 -95 -1 -100 -22 -3 -13 -66 -336 -141 -718 -74 -382 -137 -703 -140
-712 -5 -17 -27 -18 -271 -18 l-265 0 -51 -45 c-29 -25 -53 -41 -55 -37 -1 5
142 740 318 1634 176 893 320 1628 320 1631 0 4 245 7 545 7 300 0 545 -3 545
-7z m4380 0 c0 -5 -23 -28 -51 -53 l-51 -45 -29 -145 c-16 -80 -32 -158 -35
-174 -6 -30 -6 -29 47 17 l54 47 182 0 c172 0 206 -5 169 -27 -7 -4 -30 -23
-50 -40 l-37 -33 -154 -782 c-85 -431 -189 -961 -232 -1178 l-78 -395 -186 -3
-185 -2 -33 -173 c-19 -94 -36 -178 -39 -184 -3 -10 -176 -13 -817 -13 l-813
0 -57 -45 c-32 -25 -60 -43 -62 -41 -2 2 13 85 33 184 l37 181 53 38 c30 21
54 41 54 46 0 4 -77 7 -172 7 l-171 0 -54 -41 c-29 -23 -56 -39 -60 -36 -6 7
482 2510 493 2528 3 5 85 9 183 9 l179 0 32 173 c18 94 35 175 37 180 2 4 411
7 909 7 497 0 904 -3 904 -7z m1830 -2 c0 -5 -22 -29 -49 -53 l-48 -43 -67
-335 c-37 -184 -69 -346 -72 -359 -4 -21 2 -18 47 23 l51 46 179 0 c101 0 179
-4 179 -9 0 -5 -22 -29 -50 -53 l-49 -43 -66 -340 c-36 -187 -68 -346 -70
-353 -8 -21 9 -11 61 37 l47 45 139 700 c75 386 140 711 143 724 l5 22 355 0
c195 0 355 -3 355 -7 0 -5 -22 -28 -49 -53 l-48 -45 -96 -495 c-124 -641 -496
-2538 -504 -2567 l-5 -23 -448 0 -448 0 -58 -45 c-32 -25 -60 -42 -62 -37 -5
15 137 725 146 731 4 3 30 22 56 41 l48 35 -176 3 -176 2 -55 -41 c-31 -23
-58 -39 -61 -36 -3 3 27 167 67 366 l72 361 56 42 56 43 -89 3 c-49 2 -93 -1
-97 -5 -4 -4 -71 -332 -149 -728 -78 -396 -144 -723 -147 -727 -2 -5 -121 -8
-264 -8 l-261 0 -59 -46 c-33 -25 -62 -44 -64 -42 -4 3 630 3237 640 3266 3 9
121 12 545 12 323 0 540 -4 540 -9z m-6063 -7 c-3 -3 -12 -4 -19 -1 -8 3 -5 6
6 6 11 1 17 -2 13 -5z m416 -1 c-7 -2 -19 -2 -25 0 -7 3 -2 5 12 5 14 0 19 -2
13 -5z m-260 -10 c-7 -2 -21 -2 -30 0 -10 3 -4 5 12 5 17 0 24 -2 18 -5z
m-1686 -680 c-20 -2 -52 -2 -70 0 -17 2 0 4 38 4 39 0 53 -2 32 -4z m-2594
-240 c-13 -2 -35 -2 -50 0 -16 2 -5 4 22 4 28 0 40 -2 28 -4z m1084 0 c-20 -2
-52 -2 -70 0 -17 2 0 4 38 4 39 0 53 -2 32 -4z m-1124 -230 c-7 -2 -21 -2 -30
0 -10 3 -4 5 12 5 17 0 24 -2 18 -5z m5705 -700 c-21 -2 -55 -2 -75 0 -21 2
-4 4 37 4 41 0 58 -2 38 -4z m-101 -480 c-20 -2 -52 -2 -70 0 -17 2 0 4 38 4
39 0 53 -2 32 -4z m-6219 -30 c-16 -2 -40 -2 -55 0 -16 2 -3 4 27 4 30 0 43
-2 28 -4z m4525 -670 c-18 -2 -48 -2 -65 0 -18 2 -4 4 32 4 36 0 50 -2 33 -4z
m-1740 -10 c-18 -2 -48 -2 -65 0 -18 2 -4 4 32 4 36 0 50 -2 33 -4z m1530
-200 c-45 -2 -122 -2 -170 0 -48 1 -11 3 82 3 94 0 133 -2 88 -3z m-500 -10
c-7 -2 -19 -2 -25 0 -7 3 -2 5 12 5 14 0 19 -2 13 -5z m-1080 -40 c-18 -2 -48
-2 -65 0 -18 2 -4 4 32 4 36 0 50 -2 33 -4z m-4205 -489 l20 -72 -63 -62 c-36
-35 -65 -58 -69 -52 -4 6 -13 30 -21 53 -14 39 -14 43 7 73 54 77 100 137 103
134 1 -2 12 -35 23 -74z m2694 -93 c491 -240 999 -375 1581 -422 195 -15 746
-6 917 15 536 68 1000 202 1419 412 l149 74 1022 -2 1022 -3 -22 -28 c-34 -43
-103 -78 -173 -87 -64 -9 -1043 -166 -1087 -175 l-26 -6 4 -155 c9 -314 -47
-594 -136 -687 -131 -139 -650 -265 -1592 -387 -496 -64 -952 -102 -1229 -101
-601 2 -2124 310 -2556 516 -125 59 -142 119 -153 525 -5 154 -12 284 -17 288
-6 5 -246 48 -535 96 -289 48 -537 90 -552 92 -35 7 -112 58 -132 89 l-16 25
975 0 975 0 162 -79z m-1422 -458 c0 -5 18 -123 40 -263 22 -140 40 -268 40
-285 0 -27 -8 -34 -75 -72 -41 -23 -77 -38 -79 -35 -2 4 -7 32 -11 62 -3 30
-20 147 -36 259 l-30 205 68 68 c64 64 83 78 83 61z"/>
<path d="M9743 8224 c-7 -3 -9 -12 -6 -20 4 -11 -6 -14 -48 -14 -83 -1 -258
-25 -271 -38 -8 -8 -6 -55 7 -174 17 -163 28 -197 59 -185 12 5 14 18 9 64 -3
32 -12 76 -19 98 -8 25 -11 60 -7 96 7 66 -11 59 206 81 107 10 126 14 123 27
-3 9 -8 28 -12 44 -6 26 -16 31 -41 21z"/>
<path d="M10214 8205 c-4 -8 -5 -112 -3 -230 l4 -215 -56 0 c-55 0 -69 -8 -69
-41 0 -5 39 -9 88 -9 l87 0 0 255 0 255 -23 0 c-12 0 -25 -7 -28 -15z"/>
<path d="M10466 8184 c-15 -39 -8 -45 47 -42 44 3 52 6 55 24 2 17 -4 23 -29
28 -49 10 -66 7 -73 -10z"/>
<path d="M10880 8171 c0 -17 -4 -18 -30 -11 -16 5 -51 10 -77 11 l-48 3 -19
-217 -20 -217 -57 0 c-48 0 -57 -3 -62 -20 -6 -23 2 -26 104 -35 l67 -6 1 63
c1 79 29 369 36 376 3 3 37 -1 75 -10 l70 -15 0 43 c0 29 -5 44 -16 48 -23 9
-24 8 -24 -13z"/>
<path d="M9000 8100 c-12 -8 -8 -38 33 -207 26 -109 50 -207 53 -219 5 -18 -1
-22 -50 -33 -52 -12 -56 -14 -56 -42 0 -34 3 -34 95 -10 48 12 69 22 68 32 -1
8 -21 88 -44 179 -22 91 -47 196 -53 234 -12 71 -20 83 -46 66z"/>
<path d="M11350 8090 c0 -15 98 -454 106 -474 7 -17 4 -18 -32 -12 -21 4 -49
10 -61 13 -19 4 -23 1 -23 -19 0 -23 7 -26 78 -41 111 -24 113 -24 99 16 -6
17 -36 140 -67 271 -49 213 -57 240 -77 247 -14 5 -23 4 -23 -1z"/>
<path d="M11157 7965 c-26 -36 -47 -70 -47 -75 0 -6 13 -10 28 -10 39 0 91 72
84 118 -2 18 -7 32 -11 32 -4 0 -28 -29 -54 -65z"/>
<path d="M9784 8006 c-3 -8 2 -65 10 -127 9 -62 14 -114 13 -116 -2 -2 -39 -5
-83 -8 -43 -2 -126 -11 -184 -19 -58 -9 -122 -16 -142 -16 -43 0 -48 -12 -16
-34 26 -19 85 -20 195 -6 106 14 119 18 137 36 15 14 16 14 16 -2 0 -13 6 -15
31 -10 17 3 49 6 71 6 37 0 40 2 34 24 -12 50 -27 174 -27 229 0 54 -1 57 -25
57 -13 0 -27 -6 -30 -14z"/>
<path d="M8580 7974 c0 -4 27 -83 60 -176 62 -173 68 -202 47 -229 -18 -23
-40 -33 -224 -100 -92 -33 -171 -63 -175 -67 -4 -4 -4 -19 0 -33 l7 -26 205
73 c162 59 211 81 233 104 15 17 27 39 27 49 0 29 -118 353 -138 380 -18 25
-42 39 -42 25z"/>
<path d="M9540 7971 c-19 -5 -24 -13 -22 -32 2 -13 5 -25 6 -26 1 -1 28 1 59
4 55 6 58 7 55 32 -3 22 -8 26 -38 28 -19 1 -46 -2 -60 -6z"/>
<path d="M8318 7892 c-38 -15 -68 -32 -68 -38 0 -6 25 -81 55 -165 31 -85 58
-160 60 -166 6 -18 35 -4 34 16 0 9 -22 75 -48 146 -32 88 -44 132 -37 137 6
4 39 17 74 29 34 11 62 23 62 25 0 3 -5 14 -10 25 -14 25 -40 23 -122 -9z"/>
<path d="M11935 7898 c-2 -7 -32 -85 -65 -172 -33 -87 -60 -164 -60 -171 0
-10 40 -29 46 -22 1 1 27 68 57 149 31 81 64 162 73 179 13 26 14 33 2 40 -19
13 -48 11 -53 -3z"/>
<path d="M11011 7763 c-22 -32 -50 -64 -61 -71 -11 -7 -20 -16 -20 -21 0 -7
73 -31 94 -31 3 0 15 19 26 43 11 23 28 52 38 64 l17 22 83 -18 83 -18 -3 26
c-3 23 -10 27 -88 43 -125 25 -123 26 -169 -39z"/>
<path d="M11669 7499 c-6 -11 -9 -23 -6 -25 5 -6 377 -144 387 -144 4 0 17 15
29 32 l20 33 -21 8 c-12 4 -33 5 -47 2 -25 -5 -45 1 -268 84 -82 30 -83 30
-94 10z"/>
<path d="M2601 5738 c-16 -81 -329 -1686 -357 -1832 -14 -70 -23 -130 -21
-132 2 -3 27 14 54 36 l51 40 190 0 190 0 11 48 c5 26 87 441 181 922 l171
875 45 42 c24 23 44 44 44 47 0 3 -123 6 -274 6 l-275 0 -10 -52z"/>
<path d="M14648 5553 c-180 -909 -348 -1768 -348 -1776 0 -5 22 10 49 32 l49
41 185 0 c168 0 186 2 191 18 3 9 84 422 181 917 l177 900 56 52 57 53 -275 0
-275 0 -47 -237z"/>
<path d="M12400 2325 c-160 -90 -195 -118 -188 -149 2 -10 47 10 170 79 99 55
175 91 185 89 10 -3 28 -1 41 3 l22 8 -23 33 c-12 17 -26 31 -32 31 -5 -1 -84
-43 -175 -94z"/>
<path d="M7780 2384 c-6 -15 -9 -28 -8 -29 2 -2 31 -17 66 -34 74 -37 71 -19
43 -261 -11 -91 -18 -166 -17 -168 2 -1 20 13 41 31 l39 34 17 174 c9 96 15
178 12 182 -2 4 -45 28 -94 52 l-89 45 -10 -26z"/>
<path d="M7672 2103 c-45 -86 -82 -162 -82 -169 0 -13 38 -39 46 -32 2 3 27
51 54 107 36 74 53 123 60 173 6 39 9 73 7 75 -2 1 -40 -67 -85 -154z"/>
<path d="M12506 2185 c-54 -30 -104 -55 -111 -55 -7 0 -16 9 -21 20 -8 19 -11
19 -31 5 l-23 -16 20 -40 c11 -21 26 -39 34 -39 7 0 61 25 120 55 58 30 115
55 127 55 38 0 74 -38 119 -127 25 -48 46 -90 48 -93 7 -10 22 27 22 54 0 31
-72 174 -107 212 -36 39 -82 32 -197 -31z"/>
<path d="M8216 2159 l-27 -22 73 -39 c40 -22 75 -42 77 -44 2 -2 -8 -21 -22
-43 -29 -43 -190 -362 -185 -366 2 -1 13 -7 24 -13 20 -11 27 -1 118 186 54
108 109 214 123 235 14 20 24 39 22 41 -6 5 -168 86 -172 86 -3 0 -16 -10 -31
-21z"/>
<path d="M11755 2045 c-109 -40 -201 -77 -202 -82 -2 -5 3 -18 11 -28 14 -20
19 -19 198 43 101 34 193 62 204 62 42 0 73 -38 96 -117 22 -75 22 -75 40 -53
25 30 23 48 -13 140 -33 86 -56 110 -104 109 -16 0 -120 -33 -230 -74z"/>
<path d="M8010 1924 c-80 -68 -146 -129 -148 -134 -2 -6 3 -10 12 -10 21 0
253 206 272 241 8 16 13 29 12 29 -2 0 -68 -57 -148 -126z"/>
<path d="M8558 2016 c-28 -21 -21 -33 20 -40 63 -10 332 -103 353 -121 30 -28
24 -80 -31 -259 -27 -90 -50 -166 -50 -169 0 -13 46 15 59 34 21 35 111 342
111 382 0 60 -27 76 -218 135 -177 54 -215 60 -244 38z"/>
<path d="M11205 1886 c-173 -38 -190 -44 -193 -64 -2 -13 3 -25 12 -28 9 -3
84 9 168 27 84 18 177 31 206 30 40 -1 52 2 52 13 0 28 -23 66 -39 65 -9 -1
-101 -20 -206 -43z"/>
<path d="M12515 1875 c-55 -28 -107 -54 -115 -57 -12 -5 -11 -10 8 -29 l22
-24 53 29 c154 85 158 88 155 109 -2 11 -7 21 -13 22 -5 2 -55 -21 -110 -50z"/>
<path d="M11718 1893 c-10 -2 -18 -6 -18 -9 0 -6 50 -137 54 -141 2 -2 42 10
90 28 75 27 86 34 86 54 0 35 -11 37 -75 15 -32 -11 -62 -20 -66 -20 -5 0 -14
18 -20 40 -12 39 -17 42 -51 33z"/>
<path d="M8611 1873 c-19 -38 -103 -324 -98 -336 3 -8 43 -26 89 -40 78 -25
84 -25 96 -9 22 30 9 45 -56 64 -46 14 -62 23 -62 37 0 10 18 77 40 151 22 73
37 136 34 141 -9 15 -33 10 -43 -8z"/>
<path d="M9174 1857 c-12 -31 3 -42 75 -57 l73 -15 88 -205 c49 -113 93 -212
98 -220 7 -11 11 3 17 48 7 63 7 63 -71 240 -42 97 -81 182 -86 188 -5 6 -36
15 -71 18 -34 4 -74 10 -89 13 -20 4 -29 1 -34 -10z"/>
<path d="M10615 1800 c-99 -10 -181 -18 -182 -19 -2 -1 -3 -14 -3 -31 0 -36
-15 -35 200 -15 91 9 191 12 224 9 56 -7 58 -6 52 15 -3 11 -9 30 -12 41 -7
24 -25 24 -279 0z"/>
<path d="M12062 1789 l-24 -30 39 -45 c21 -26 45 -56 54 -67 15 -19 20 -19 62
-7 l46 12 -32 32 c-18 17 -53 54 -77 82 l-45 52 -23 -29z"/>
<path d="M9610 1771 c0 -23 4 -31 18 -31 28 0 32 -9 18 -48 -7 -21 -26 -119
-41 -220 -25 -158 -27 -185 -14 -193 8 -5 17 -9 20 -9 4 0 21 93 39 208 17
114 38 229 45 257 8 27 12 51 10 53 -2 3 -24 7 -50 9 -45 6 -45 6 -45 -26z"/>
<path d="M9899 1772 c-19 -9 -35 -25 -37 -34 -3 -17 11 -18 175 -18 116 -1
198 -6 236 -15 l59 -14 -7 42 c-4 23 -8 43 -9 43 0 1 -87 4 -192 7 -167 5
-195 4 -225 -11z"/>
<path d="M11151 1741 c-11 -7 -11 -20 -1 -80 7 -39 18 -71 24 -71 20 1 181 38
209 49 22 9 29 8 33 -4 6 -15 50 -21 57 -7 2 4 0 26 -5 50 -8 35 -13 42 -26
37 -20 -8 -209 -55 -222 -55 -5 0 -12 20 -16 45 -6 46 -21 56 -53 36z"/>
<path d="M9171 1547 c-12 -78 -25 -157 -28 -174 -5 -30 -3 -33 21 -33 24 0 26
3 26 41 0 23 7 84 16 136 15 89 13 156 -5 167 -5 3 -18 -58 -30 -137z"/>
<path d="M11797 1683 c-11 -3 -16 -11 -13 -21 3 -9 15 -47 26 -84 21 -69 32
-78 63 -55 16 11 15 16 -7 72 -13 33 -26 68 -29 78 -7 17 -9 18 -40 10z"/>
<path d="M10702 1673 c-6 -2 -10 -8 -8 -11 2 -4 6 -47 10 -97 7 -100 14 -179
22 -242 5 -42 6 -43 41 -43 33 0 35 2 29 28 -3 15 -13 99 -21 187 -9 88 -18
166 -20 173 -4 12 -29 15 -53 5z"/>
<path d="M9962 1598 l3 -53 127 -5 c123 -5 129 -6 155 -33 27 -26 28 -31 28
-132 0 -58 3 -105 7 -105 4 0 15 11 24 25 13 20 17 52 18 140 1 112 1 115 -27
142 -27 27 -31 28 -157 32 -120 3 -130 4 -130 22 0 14 -7 19 -26 19 -24 0 -25
-2 -22 -52z"/>
<path d="M11197 1523 c-11 -3 -16 -11 -13 -21 3 -9 10 -44 16 -78 l12 -61 106
22 c59 12 119 27 135 33 16 7 27 8 27 2 0 -13 33 -13 46 0 5 5 8 26 6 46 -4
31 -7 35 -26 29 -11 -3 -70 -19 -131 -34 l-110 -28 -7 21 c-3 12 -9 33 -12 49
-6 26 -13 29 -49 20z"/>
<path d="M9847 1314 c3 -22 7 -41 9 -43 1 -1 59 -5 127 -8 131 -6 134 -5 143
41 4 23 2 23 -109 29 -61 3 -126 9 -144 13 l-32 6 6 -38z"/>
</g>
</svg>
